<?xml version="1.0" standalone="no"?>
<!DOCTYPE svg PUBLIC "-//W3C//DTD SVG 20010904//EN"
 "http://www.w3.org/TR/2001/REC-SVG-20010904/DTD/svg10.dtd">
<svg version="1.0" xmlns="http://www.w3.org/2000/svg"
 width="981.000000pt" height="282.000000pt" viewBox="0 0 981.000000 282.000000"
 preserveAspectRatio="xMidYMid meet">
<metadata>
Created by potrace 1.16, written by Peter Selinger 2001-2019
</metadata>
<g transform="translate(0.000000,282.000000) scale(0.100000,-0.100000)"
fill="#000000" stroke="none">
<path d="M565 2739 c-56 -110 -101 -178 -160 -239 -105 -108 -225 -326 -290
-524 -100 -306 -132 -693 -76 -909 47 -180 212 -444 404 -644 57 -60 61 -66
77 -148 10 -46 24 -125 31 -175 l12 -90 62 0 63 0 6 48 c3 26 8 105 12 177 l7
130 56 60 c187 202 336 434 390 608 85 278 21 786 -144 1134 -66 139 -144 260
-227 351 -39 43 -87 112 -125 182 l-61 113 -37 -74z"/>
<path d="M7130 1952 c0 -17 8 -20 60 -24 49 -4 66 -9 88 -31 l27 -27 2 -553
c2 -429 0 -558 -10 -577 -16 -33 -72 -60 -124 -60 -37 0 -43 -3 -43 -21 l0
-21 383 5 c354 4 388 6 462 26 202 56 334 157 410 315 58 123 70 178 69 326 0
139 -16 215 -65 314 -83 166 -207 266 -398 318 -70 20 -108 22 -468 26 -386 4
-393 3 -393 -16z m746 -95 c168 -85 256 -351 225 -677 -29 -307 -132 -447
-336 -458 -69 -4 -83 -2 -105 16 l-25 20 -3 567 -2 568 97 -5 c80 -4 108 -10
149 -31z"/>
<path d="M8590 1951 c0 -18 6 -21 43 -21 52 0 108 -27 124 -60 18 -35 19
-1087 1 -1125 -15 -33 -55 -54 -119 -62 -40 -5 -49 -9 -49 -26 0 -19 6 -19
403 -14 448 6 489 11 614 72 208 103 267 329 127 494 -36 44 -100 78 -202 111
-63 21 -82 30 -67 35 117 37 189 77 232 130 99 120 54 318 -95 413 -95 62
-124 65 -589 70 l-423 4 0 -21z m661 -72 c111 -28 176 -130 167 -264 -5 -85
-39 -150 -97 -186 -53 -34 -91 -45 -178 -52 l-63 -5 0 265 0 265 68 -7 c37 -4
83 -11 103 -16z m35 -604 c67 -20 109 -58 144 -129 52 -105 44 -236 -21 -325
-42 -58 -132 -101 -212 -101 -51 0 -62 4 -88 29 l-29 29 0 263 0 262 81 -7
c45 -4 101 -14 125 -21z"/>
<path d="M1695 1514 c-71 -30 -130 -56 -132 -58 -2 -2 -1 -10 2 -19 5 -12 13
-13 37 -6 44 12 78 1 91 -30 12 -30 23 -547 12 -617 -9 -61 -39 -94 -93 -101
-26 -3 -42 -11 -42 -19 0 -11 41 -14 225 -14 193 0 225 2 225 15 0 10 -10 15
-29 15 -15 0 -43 5 -61 11 -56 20 -60 44 -60 358 l0 279 40 35 c120 109 262
116 317 15 16 -29 18 -66 21 -322 2 -212 0 -297 -9 -319 -13 -31 -60 -57 -104
-57 -16 0 -25 -6 -25 -15 0 -13 32 -15 225 -15 184 0 225 3 225 14 0 9 -17 16
-48 20 -34 4 -56 14 -73 32 l-24 26 -3 293 -3 294 58 45 c122 96 241 100 300
9 16 -24 18 -58 21 -330 2 -212 0 -309 -8 -323 -13 -25 -67 -50 -105 -50 -18
0 -25 -5 -25 -20 0 -20 5 -20 217 -18 198 3 218 5 221 21 3 12 -3 17 -22 17
-40 0 -74 17 -93 47 -16 24 -19 61 -23 343 -5 304 -6 317 -28 362 -33 66 -78
106 -140 124 -100 29 -205 -8 -312 -111 l-68 -66 -6 28 c-12 48 -54 101 -103
130 -38 22 -59 27 -112 27 -87 0 -154 -34 -243 -122 l-68 -66 0 97 c0 94 -1
97 -22 96 -13 0 -81 -25 -153 -55z"/>
<path d="M3510 1556 c-172 -38 -295 -178 -337 -380 -28 -140 7 -283 98 -403
143 -189 437 -205 609 -34 62 63 114 168 137 277 31 153 -14 310 -123 424 -64
67 -129 103 -218 119 -72 13 -95 13 -166 -3z m138 -72 c137 -57 222 -297 192
-543 -23 -187 -116 -275 -264 -247 -83 16 -177 145 -212 292 -24 104 -16 311
15 380 50 114 162 163 269 118z"/>
<path d="M4248 1513 c-103 -42 -135 -59 -131 -70 5 -11 16 -14 45 -9 51 8 75
-6 88 -52 13 -49 13 -585 -1 -634 -11 -43 -48 -68 -99 -68 -25 0 -31 -4 -28
-17 3 -17 22 -18 223 -18 201 0 220 1 223 18 3 13 -3 17 -28 17 -17 0 -46 6
-65 14 -50 21 -55 52 -55 357 l0 266 46 43 c86 79 202 107 262 64 55 -41 62
-87 59 -406 -2 -279 -3 -288 -23 -309 -14 -13 -39 -23 -68 -26 -36 -5 -46 -9
-46 -24 0 -18 12 -19 220 -19 208 0 220 1 220 19 0 14 -10 20 -41 24 -51 7
-78 31 -89 83 -5 21 -10 159 -10 305 0 212 -3 276 -16 319 -35 118 -102 174
-210 174 -81 0 -156 -38 -241 -121 l-63 -62 0 94 c0 84 -2 95 -17 95 -10 -1
-80 -26 -155 -57z"/>
<path d="M5501 1559 c-102 -20 -196 -91 -242 -184 -19 -40 -24 -65 -24 -130 0
-118 39 -191 135 -257 l25 -16 -61 -64 c-71 -72 -84 -94 -84 -138 0 -43 13
-64 55 -90 l36 -22 -60 -62 c-155 -162 -158 -237 -13 -314 80 -43 168 -62 287
-62 166 0 282 41 387 138 97 90 132 196 94 285 -19 47 -88 103 -144 117 -26 6
-137 15 -247 20 -201 9 -251 17 -261 45 -9 23 3 61 30 92 23 27 24 27 157 28
164 0 211 17 289 102 83 90 102 217 50 325 -11 23 -20 43 -20 44 0 2 37 4 83
6 l82 3 3 38 3 37 -120 0 c-108 0 -124 2 -169 25 -83 41 -175 53 -271 34z
m157 -66 c67 -50 102 -143 102 -273 0 -103 -12 -143 -54 -188 -86 -91 -218
-53 -277 81 -19 44 -23 69 -23 162 -1 95 2 116 21 152 21 38 56 71 93 86 29
12 111 0 138 -20z m1 -868 c255 -16 298 -26 315 -76 13 -39 0 -75 -45 -124
-55 -59 -125 -85 -250 -92 -203 -12 -379 53 -379 139 0 62 66 168 104 168 11
0 126 -7 255 -15z"/>
<path d="M6522 1559 c-82 -16 -160 -59 -216 -120 -93 -100 -136 -213 -136
-360 0 -114 25 -195 89 -286 87 -124 202 -179 357 -171 197 10 347 149 399
369 28 119 16 227 -37 336 -58 119 -161 202 -284 228 -76 16 -108 17 -172 4z
m122 -69 c37 -14 101 -75 129 -123 50 -85 71 -180 72 -322 0 -149 -14 -216
-56 -275 -55 -76 -165 -103 -248 -61 -121 62 -198 263 -189 490 4 89 9 116 32
166 15 33 35 68 44 79 41 46 153 70 216 46z"/>
</g>
</svg>
